<?xml version="1.0" ?><svg height="60px" version="1.1" viewBox="0 0 60 60" width="60px" xmlns="http://www.w3.org/2000/svg" xmlns:sketch="http://www.bohemiancoding.com/sketch/ns" xmlns:xlink="http://www.w3.org/1999/xlink"><title/><desc/><defs/><g fill="none" fill-rule="evenodd" id="Page-1" stroke="none" stroke-width="1"><g fill="#fceb09" id="Fill-215-+-Fill-216" transform="#fceb09"><path d="M59.023,21.799 C58.366,20.51 57.115,19.733 55.613,19.668 L51.56,19.408 C50.799,19.372 50.036,19.521 49.345,19.832 L40.068,23.988 C39.993,23.87 39.912,23.756 39.852,23.626 L38.199,19.996 L48.591,17.914 C51.057,17.424 51.974,15.286 51.604,13.428 C51.238,11.58 49.536,9.873 47.092,10.359 C45.537,10.667 44.022,10.959 42.794,11.193 L44.986,8.528 C46.694,6.452 45.928,4.183 44.492,2.954 C42.959,1.641 40.384,1.31 38.602,3.309 L34.758,8.014 C34.469,3.82 30.974,0.494 26.709,0.494 C22.255,0.494 18.632,4.118 18.632,8.571 C18.632,12.306 21.183,15.448 24.632,16.368 C25.431,18.814 28.88,28.866 32.446,31.792 C33.139,32.36 33.972,32.728 34.855,32.854 L40.972,33.729 C41.927,33.866 42.748,34.465 43.169,35.332 L45.002,39.104 C45.803,40.752 47.196,41.451 48.578,41.451 C49.222,41.451 49.863,41.299 50.44,41.02 C52.263,40.139 53.577,37.91 52.425,35.515 L49.273,28.966 L49.162,28.787 L51.671,27.763 C52.074,27.601 52.509,27.53 52.89,27.554 L55.132,27.851 C56.687,27.958 58.016,27.338 58.799,26.153 C59.638,24.884 59.726,23.175 59.023,21.799 L59.023,21.799 Z M47.48,12.321 C48.893,12.046 49.507,13.129 49.644,13.817 C49.806,14.637 49.525,15.689 48.199,15.953 L37.769,18.043 C37.832,17.495 38.045,16.966 38.405,16.528 L40.811,13.604 C41.83,13.413 44.59,12.893 47.48,12.321 L47.48,12.321 Z M20.632,8.571 C20.632,5.22 23.358,2.494 26.709,2.494 C30.06,2.494 32.786,5.22 32.786,8.571 C32.786,9.506 32.568,10.388 32.19,11.179 C32.121,11.278 32.065,11.381 32.036,11.492 C31.001,13.372 29.002,14.649 26.709,14.649 C23.358,14.649 20.632,11.922 20.632,8.571 L20.632,8.571 Z M50.622,36.382 C51.247,37.68 50.515,38.762 49.569,39.219 C48.718,39.632 47.477,39.623 46.801,38.23 L44.968,34.458 C44.257,32.993 42.869,31.98 41.256,31.75 L35.138,30.874 C34.617,30.799 34.125,30.582 33.714,30.246 C31.131,28.126 28.203,20.67 26.831,16.643 C29.921,16.596 32.591,14.807 33.908,12.215 L40.123,4.607 C41.082,3.53 42.385,3.783 43.191,4.473 C43.912,5.09 44.356,6.146 43.441,7.258 L39.631,11.89 C39.499,11.984 39.404,12.111 39.331,12.254 L36.86,15.258 C35.921,16.399 35.572,17.91 35.853,19.332 L35.853,19.446 L35.909,19.589 C35.979,19.865 36.065,20.138 36.185,20.401 L38.032,24.456 C38.648,25.808 39.826,26.796 41.265,27.168 L45.585,28.284 C46.412,28.498 47.1,29.062 47.471,29.833 L50.622,36.382 L50.622,36.382 Z M57.131,25.05 C56.744,25.635 56.09,25.913 55.333,25.862 L53.091,25.565 C52.354,25.515 51.606,25.633 50.92,25.909 L47.789,27.187 C47.283,26.807 46.713,26.51 46.085,26.348 L42.031,25.3 L50.163,21.656 C50.571,21.474 51.019,21.38 51.451,21.405 L55.506,21.666 C56.523,21.709 57.012,22.257 57.242,22.708 C57.61,23.43 57.564,24.393 57.131,25.05 L57.131,25.05 Z" id="Fill-215"/><path d="M36,44 L30,44 L30,37 C30,36.448 29.552,36 29,36 L23,36 L23,29 C23,28.448 22.552,28 22,28 L16,28 L16,21 C16,20.448 15.552,20 15,20 L9,20 L9,13 C9,12.448 8.552,12 8,12 L1,12 C0.448,12 0,12.448 0,13 C0,13.552 0.448,14 1,14 L7,14 L7,21 C7,21.552 7.448,22 8,22 L14,22 L14,29 C14,29.552 14.448,30 15,30 L21,30 L21,37 C21,37.552 21.448,38 22,38 L28,38 L28,45 C28,45.552 28.448,46 29,46 L35,46 L35,53 C35,53.552 35.448,54 36,54 C36.552,54 37,53.552 37,53 L37,45 C37,44.448 36.552,44 36,44" id="Fill-216"/></g></g></svg>